<svg class="logo-white" width="300px" height="62px" viewBox="0 0 300 62" version="1.1" xmlns="http://www.w3.org/2000/svg" xmlns:xlink="http://www.w3.org/1999/xlink">
  <!-- Generator: Sketch 50.2 (55047) - http://www.bohemiancoding.com/sketch -->
  <defs>
    <polygon id="path-1" points="0.000193965517 10.984888 18.6435129 10.984888 18.6435129 0.552733715 0.000193965517 0.552733715"></polygon>
    <polygon id="path-3" points="0 61.3549286 299.742672 61.3549286 299.742672 -0.000193850964 0 -0.000193850964"></polygon>
  </defs>
  <g id="Welcome" stroke="none" stroke-width="1" fill="none" fill-rule="evenodd">
    <g id="Desktop-HD" transform="translate(-50.000000, -4106.000000)">
      <g id="Group" transform="translate(50.000000, 4106.052588)">
        <g id="Page-1">
          <path d="M151.199547,56.5237749 C149.94653,56.5237749 148.776272,56.4203877 147.675841,56.2381678 L147.675841,49.8494862 C148.639203,50.210049 149.804935,50.4006691 151.199547,50.4006691 C152.843082,50.4006691 154.63597,50.1021386 156.055797,49.5793872 L156.055797,55.702493 C154.63597,56.1502887 152.693728,56.5237749 151.199547,56.5237749 Z"
            id="Fill-1" fill="#FFFFFF"></path>
          <path d="M156.055603,26.8059698 L156.055603,20.7578197 L144.176509,20.7578197 L144.176509,10.3040834 L137.153664,11.3495862 L137.153664,20.7578197 L129.682112,20.7578197 L129.682112,26.8059698 L137.153664,26.8059698 L137.153664,44.0541824 C137.153664,44.4212069 137.175647,44.7740156 137.198276,45.1274706 L144.237284,45.1274706 C144.201078,44.783062 144.176509,44.4289609 144.176509,44.0541824 L144.176509,26.8059698 L156.055603,26.8059698 Z"
            id="Fill-3" fill="#FFFFFF"></path>
          <path d="M30.5365086,0.821281918 L30.5365086,6.869432 C29.116681,6.34668056 27.3237931,6.12310578 25.6802586,6.12310578 C20.8240086,6.12310578 18.6567672,8.28842105 18.6567672,12.4697863 L18.6567672,20.7582074 L30.5365086,20.7582074 L30.5365086,26.8057113 L18.6567672,26.8057113 L18.6567672,41.8892548 L11.6339224,41.8892548 L11.6339224,26.8057113 L4.16301724,26.8057113 L4.16301724,20.7582074 L11.6339224,20.7582074 L11.6339224,12.4697863 C11.6339224,4.70411673 16.7895259,0 25.6802586,0 C27.1744397,0 29.116681,0.298530485 30.5365086,0.821281918"
            id="Fill-5" fill="#FFFFFF"></path>
          <g id="Group-9" transform="translate(0.000000, 50.370041)">
            <mask id="mask-2" fill="white">
              <use xlink:href="#path-1"></use>
            </mask>
            <g id="Clip-8"></g>
            <path d="M18.6435129,0.552733715 C17.8088147,7.09584992 12.8491164,10.9851464 4.82217672,10.9851464 C3.33834052,10.9851464 1.40967672,10.6859698 0.000193965517,10.1638645 L0.000193965517,4.11571443 C1.40967672,4.6378197 3.19028017,4.86204065 4.82217672,4.86204065 C8.7868319,4.86204065 10.9463147,3.3978197 11.5889871,0.552733715 L18.6435129,0.552733715 Z"
              id="Fill-7" fill="#FFFFFF" mask="url(#mask-2)"></path>
          </g>
          <path d="M116.681638,26.0462032 C110.510948,26.578001 107.037026,30.5396686 107.037026,38.2297363 C107.037026,46.4432017 111.071509,50.4009922 118.169353,50.4009922 C121.157716,50.4009922 124.519784,49.8039312 127.583147,48.8327379 L127.583147,54.880888 C124.818491,55.7771256 121.008362,56.524098 118.169353,56.524098 C106.513966,56.524098 99.7154741,49.654666 99.7154741,38.2297363 C99.7154741,27.2299865 105.937241,20.5350203 116.679698,19.974791 L116.681638,26.0462032 Z"
            id="Fill-10" fill="#FFFFFF"></path>
          <path d="M63.1201293,56.0612465 C61.9660345,56.32553 60.6580603,56.5239041 59.4160345,56.5239041 C57.1744397,56.5239041 55.0821983,55.7769317 53.7373707,54.4328984 C50.9733621,55.7026222 47.91,56.5239041 44.547931,56.5239041 C35.2834914,56.5239041 29.6061207,51.6705221 29.6061207,43.4570568 L29.6061207,20.7577551 L36.628319,20.7577551 L36.628319,43.4570568 C36.628319,48.0112621 39.3186207,50.4007983 44.547931,50.4007983 C47.2375862,50.4007983 49.479181,49.8780469 51.7207759,48.9824554 L51.7207759,29.8041334 L58.7429741,29.8041334 L58.7429741,47.862643 C58.7429741,49.5795164 59.4903879,50.4007983 61.2089224,50.4007983 C61.8696983,50.4007983 62.5110776,50.2993497 63.1207759,50.1500844 L63.1201293,56.0612465 Z"
            id="Fill-12" fill="#FFFFFF"></path>
          <path d="M65.8600862,43.8994893 L65.8600862,22.027285 C70.1182759,20.9068265 75.7969397,19.9362793 80.0551293,19.9362793 C89.319569,19.9362793 94.9975862,24.7153517 94.9975862,33.0031266 L94.9975862,55.6274726 L87.9747414,55.6274726 L87.9747414,33.0031266 C87.9747414,28.3739656 85.2100862,25.9844294 80.0551293,25.9844294 C77.5898276,25.9844294 75.1245259,26.3579156 72.882931,26.9549766 L72.882931,43.8994893 L65.8600862,43.8994893 Z"
            id="Fill-14" fill="#FFFFFF"></path>
          <mask id="mask-4" fill="white">
            <use xlink:href="#path-3"></use>
          </mask>
          <g id="Clip-17"></g>
          <polygon id="Fill-16" fill="#FFFFFF" mask="url(#mask-4)" points="162.043966 55.627925 169.06681 55.627925 169.06681 20.7580135 162.043966 20.7580135"></polygon>
          <path d="M208.752737,38.2300594 C208.752737,26.8807316 202.252306,19.9363439 191.868039,19.9363439 C181.482478,19.9363439 174.907694,26.8807316 174.907694,38.2300594 C174.907694,47.0289547 178.912435,53.2354164 185.606832,55.5370735 L185.606832,48.1261511 C183.455754,46.1178551 182.229892,42.7997728 182.229892,38.2300594 C182.229892,30.240815 185.965668,25.984494 191.868039,25.984494 C197.694763,25.984494 201.431185,30.240815 201.431185,38.2300594 C201.431185,43.1448275 200.012651,46.6121751 197.568039,48.5577926 L197.568039,55.7115393 C204.573427,53.5656092 208.752737,47.2673913 208.752737,38.2300594"
            id="Fill-18" fill="#FFFFFF" mask="url(#mask-4)"></path>
          <path d="M208.845043,38.2937155 C208.845043,26.9443877 202.344612,20 191.960345,20 C181.574784,20 175,26.9443877 175,38.2937155 C175,47.0926107 179.004741,53.2990724 185.699138,55.6007295 L185.699138,48.1898072 C183.54806,46.1815112 182.322198,42.8634289 182.322198,38.2937155 C182.322198,30.3044711 186.057974,26.0481501 191.960345,26.0481501 C197.787069,26.0481501 201.523491,30.3044711 201.523491,38.2937155 C201.523491,43.2084836 200.104957,46.6758312 197.660345,48.6214487 L197.660345,55.7751954 C204.665733,53.6292652 208.845043,47.3310474 208.845043,38.2937155"
            id="Fill-19" fill="#FFFFFF" mask="url(#mask-4)"></path>
          <path d="M243.080625,33.0032559 C243.080625,24.7148348 237.403254,19.9364085 228.139461,19.9364085 C223.880625,19.9364085 218.201961,20.9069557 213.943772,22.0274143 L213.943772,55.6276019 L220.966616,55.6276019 L220.966616,26.9551058 C223.208211,26.3580448 225.673513,25.9845586 228.139461,25.9845586 C233.293772,25.9845586 236.058427,28.3734487 236.058427,33.0032559 L236.058427,43.8989724 L243.080625,43.8989724 L243.080625,33.0032559 Z"
            id="Fill-20" fill="#FFFFFF" mask="url(#mask-4)"></path>
          <path d="M243.080625,33.0032559 C243.080625,24.7148348 237.403254,19.9364085 228.139461,19.9364085 C223.880625,19.9364085 218.201961,20.9069557 213.943772,22.0274143 L213.943772,55.6276019 L220.966616,55.6276019 L220.966616,26.9551058 C223.208211,26.3580448 225.673513,25.9845586 228.139461,25.9845586 C233.293772,25.9845586 236.058427,28.3734487 236.058427,33.0032559 L236.058427,43.8989724 L243.080625,43.8989724 L243.080625,33.0032559 Z"
            id="Fill-21" fill="#FFFFFF" mask="url(#mask-4)"></path>
          <path d="M262.825668,19.9362793 C252.590108,19.9362793 247.958211,25.2381032 247.958211,30.7628557 C247.958211,37.7072434 252.963815,41.4408129 261.406487,41.4408129 C266.03903,41.4408129 267.831272,43.1583325 267.831272,45.8463992 C267.831272,48.1609797 266.03903,50.4006045 259.912306,50.4006045 C256.25153,50.4006045 252.217047,49.7285878 248.107565,48.4595102 L248.107565,54.5826159 C252.067047,55.7767379 255.80347,56.5237103 259.912306,56.5237103 C270.29722,56.5237103 275.004116,51.1475769 275.004116,45.3979573 C275.004116,38.37926 270.072866,34.7206462 261.406487,34.7206462 C256.923297,34.7206462 255.131056,32.9281709 255.131056,30.3150599 C255.131056,28.2247004 256.848944,25.9844294 262.825668,25.9844294 C262.969203,25.9844294 263.117263,25.9928296 263.262091,25.9947681 L263.262091,19.9459719 C263.11597,19.9440334 262.972435,19.9362793 262.825668,19.9362793"
            id="Fill-22" fill="#FFFFFF" mask="url(#mask-4)"></path>
          <path d="M262.825668,19.9362793 C252.590108,19.9362793 247.958211,25.2381032 247.958211,30.7628557 C247.958211,37.7072434 252.963815,41.4408129 261.406487,41.4408129 C266.03903,41.4408129 267.831272,43.1583325 267.831272,45.8463992 C267.831272,48.1609797 266.03903,50.4006045 259.912306,50.4006045 C256.25153,50.4006045 252.217047,49.7285878 248.107565,48.4595102 L248.107565,54.5826159 C252.067047,55.7767379 255.80347,56.5237103 259.912306,56.5237103 C270.29722,56.5237103 275.004116,51.1475769 275.004116,45.3979573 C275.004116,38.37926 270.072866,34.7206462 261.406487,34.7206462 C256.923297,34.7206462 255.131056,32.9281709 255.131056,30.3150599 C255.131056,28.2247004 256.848944,25.9844294 262.825668,25.9844294 C262.969203,25.9844294 263.117263,25.9928296 263.262091,25.9947681 L263.262091,19.9459719 C263.11597,19.9440334 262.972435,19.9362793 262.825668,19.9362793"
            id="Fill-23" fill="#FFFFFF" mask="url(#mask-4)"></path>
          <polygon id="Fill-24" fill="#F7991C" mask="url(#mask-4)" points="275.558405 24.9503637 278.990302 24.9503637 278.990302 9.83645023 275.558405 9.83645023"></polygon>
          <polygon id="Stroke-25" stroke="#F7991C" stroke-width="3" mask="url(#mask-4)" points="275.558405 24.9503637 278.990302 24.9503637 278.990302 9.83645023 275.558405 9.83645023"></polygon>
          <path d="M282.270841,3.05793434 L282.270841,6.04970089 L293.990237,6.04970089 C293.023642,7.27290047 292.115237,8.70545909 291.290237,10.2801751 L294.844332,10.2801751 C295.950582,8.30095675 297.25597,6.43352579 298.77278,4.73668369 L298.77278,3.05793434 L282.270841,3.05793434 Z"
            id="Fill-26" fill="#F7991C" mask="url(#mask-4)"></path>
          <path d="M282.270841,3.05793434 L282.270841,6.04970089 L293.990237,6.04970089 C293.023642,7.27290047 292.115237,8.70545909 291.290237,10.2801751 L294.844332,10.2801751 C295.950582,8.30095675 297.25597,6.43352579 298.77278,4.73668369 L298.77278,3.05793434 L282.270841,3.05793434 Z"
            id="Stroke-27" stroke="#F7991C" stroke-width="3" mask="url(#mask-4)"></path>
          <path d="M286.980453,27.3950182 L290.448556,27.3950182 C290.448556,23.7609588 291.013642,20.0848984 292.125711,16.5774883 L288.715151,16.5774883 C287.630237,20.0687441 286.980453,23.8113601 286.980453,27.3950182"
            id="Fill-28" fill="#F7991C" mask="url(#mask-4)"></path>
          <path d="M286.980453,27.3950182 L290.448556,27.3950182 C290.448556,23.7609588 291.013642,20.0848984 292.125711,16.5774883 L288.715151,16.5774883 C287.630237,20.0687441 286.980453,23.8113601 286.980453,27.3950182 Z"
            id="Stroke-29" stroke="#F7991C" stroke-width="3" mask="url(#mask-4)"></path>
          <path d="M151.199547,56.5237749 C152.693728,56.5237749 154.63597,56.1502887 156.055797,55.702493 L156.055797,49.5793872 C154.63597,50.1021386 152.843082,50.4006691 151.199547,50.4006691 C149.804935,50.4006691 148.639203,50.210049 147.675841,49.8494862 L147.675841,56.2381678 C148.776272,56.4203877 149.94653,56.5237749 151.199547,56.5237749"
            id="Fill-30" fill="#FFFFFF" mask="url(#mask-4)"></path>
          <path d="M156.055603,26.8059698 L156.055603,20.7578197 L144.176509,20.7578197 L144.176509,10.3040834 L137.153664,11.3495862 L137.153664,20.7578197 L129.682112,20.7578197 L129.682112,26.8059698 L137.153664,26.8059698 L137.153664,44.0541824 C137.153664,44.4212069 137.175647,44.7740156 137.198276,45.1274706 L144.237284,45.1274706 C144.201078,44.783062 144.176509,44.4289609 144.176509,44.0541824 L144.176509,26.8059698 L156.055603,26.8059698 Z"
            id="Fill-31" fill="#FFFFFF" mask="url(#mask-4)"></path>
        </g>
      </g>
    </g>
  </g>
</svg>
